<?xml version="1.0" standalone="no"?>
<!DOCTYPE svg PUBLIC "-//W3C//DTD SVG 20010904//EN"
 "http://www.w3.org/TR/2001/REC-SVG-20010904/DTD/svg10.dtd">
<svg version="1.0" xmlns="http://www.w3.org/2000/svg"
 width="512.000000pt" height="512.000000pt" viewBox="0 0 512.000000 512.000000"
 preserveAspectRatio="xMidYMid meet">
<metadata>
Created by potrace 1.11, written by Peter Selinger 2001-2013
</metadata>
<g transform="translate(0.000000,512.000000) scale(0.100000,-0.100000)"
fill="#000000" stroke="none">
<path d="M2407 5012 c-37 -38 -38 -99 -2 -132 25 -23 25 -25 25 -197 0 -147
-2 -173 -15 -173 -8 0 -15 5 -15 10 0 6 -8 10 -19 10 -10 0 -24 7 -31 15 -7 8
-20 15 -30 15 -10 0 -23 7 -30 15 -7 8 -18 15 -24 15 -7 0 -23 11 -36 25 -13
14 -30 25 -37 25 -7 0 -30 10 -51 23 -20 12 -55 31 -77 42 -22 11 -51 30 -65
43 -13 12 -30 22 -35 22 -6 0 -16 5 -23 12 -13 13 -60 20 -66 9 -7 -11 50 -71
67 -71 8 0 20 -7 27 -15 7 -8 21 -15 31 -15 10 0 22 -6 26 -14 7 -12 33 -28
128 -80 11 -6 31 -21 45 -32 14 -12 35 -25 48 -29 12 -3 22 -11 22 -16 0 -5 8
-9 19 -9 10 0 24 -7 31 -15 7 -8 17 -15 23 -15 6 0 28 -8 49 -17 l38 -17 0
-247 c0 -262 -3 -277 -47 -244 -10 8 -25 15 -34 15 -8 0 -28 14 -44 30 -16 17
-37 30 -47 30 -10 0 -18 5 -18 10 0 6 -8 10 -19 10 -10 0 -24 7 -31 15 -7 8
-18 15 -25 15 -7 0 -18 7 -26 16 -7 8 -36 27 -63 41 -28 14 -60 33 -71 43 -33
30 -68 34 -90 10 -18 -20 -18 -21 15 -55 19 -19 42 -35 52 -35 10 0 18 -4 18
-10 0 -5 8 -10 19 -10 10 0 24 -7 31 -15 7 -8 18 -15 25 -15 6 0 20 -9 31 -21
10 -12 40 -31 67 -42 26 -11 47 -24 47 -29 0 -4 8 -8 18 -8 10 0 29 -11 41
-24 13 -13 34 -27 47 -30 13 -4 24 -11 24 -16 0 -6 8 -10 18 -10 10 0 28 -10
40 -23 22 -23 22 -30 22 -305 0 -242 -2 -283 -15 -288 -8 -4 -15 -17 -15 -30
0 -13 -4 -24 -10 -24 -5 0 -12 -11 -16 -24 -3 -13 -17 -34 -30 -47 -13 -12
-24 -30 -24 -40 0 -9 -3 -19 -7 -21 -5 -1 -15 -15 -23 -29 -8 -14 -24 -40 -35
-57 l-20 -32 -166 0 c-138 0 -169 3 -179 15 -7 9 -19 14 -26 11 -6 -2 -22 6
-35 20 -12 13 -30 24 -39 24 -9 0 -27 11 -40 25 -13 14 -31 25 -40 25 -9 0
-34 18 -55 40 -21 22 -45 40 -52 40 -8 0 -26 11 -41 25 -15 14 -32 25 -38 25
-6 0 -19 10 -30 21 -10 12 -29 25 -41 30 l-23 8 -2 313 c-3 305 -3 313 -23
313 -19 0 -20 -7 -22 -285 -1 -157 -6 -286 -10 -287 -5 -2 -24 13 -43 32 -19
19 -41 35 -50 35 -9 0 -27 13 -40 30 -14 16 -33 29 -44 30 -10 0 -27 11 -38
25 -11 14 -27 25 -37 25 -10 0 -28 11 -41 25 -13 14 -31 25 -40 25 -9 0 -34
18 -55 40 -21 22 -45 40 -51 40 -7 0 -19 6 -26 13 -7 7 -25 20 -40 30 l-28 17
0 264 c0 228 -2 265 -16 277 -13 10 -17 10 -25 -2 -5 -8 -9 -123 -9 -256 0
-239 0 -241 -21 -236 -11 3 -23 12 -26 19 -3 8 -13 14 -22 14 -9 0 -35 18 -56
40 -21 22 -47 40 -56 40 -10 0 -26 11 -37 25 -11 14 -28 25 -38 25 -11 1 -30
14 -44 30 -13 17 -32 30 -42 30 -13 0 -18 8 -18 30 0 40 -62 100 -102 100 -41
0 -97 -55 -105 -103 -5 -34 -2 -42 28 -73 24 -25 41 -34 66 -34 18 0 33 4 33
9 0 23 40 17 66 -10 15 -16 34 -29 42 -29 8 0 25 -11 38 -25 13 -14 30 -25 39
-25 9 0 26 -11 39 -25 13 -14 30 -25 39 -25 9 0 28 -11 43 -25 15 -14 32 -25
37 -25 6 0 26 -14 43 -31 18 -17 43 -37 56 -43 14 -7 24 -22 26 -39 3 -25 32
-40 32 -17 0 18 26 10 50 -15 13 -14 28 -25 34 -25 6 0 23 -11 38 -25 15 -14
33 -25 41 -25 7 0 31 -18 52 -40 21 -22 46 -40 56 -40 9 0 26 -13 39 -30 13
-17 32 -30 44 -30 12 0 30 -11 40 -25 10 -14 26 -25 36 -25 9 0 25 -9 35 -20
17 -19 17 -21 0 -40 -10 -11 -27 -20 -37 -20 -10 0 -21 -7 -24 -15 -4 -8 -15
-15 -26 -15 -12 0 -31 -11 -44 -25 -13 -14 -32 -25 -44 -25 -11 0 -20 -4 -20
-10 0 -5 -8 -10 -19 -10 -10 0 -24 -7 -31 -15 -7 -8 -20 -15 -30 -15 -9 0 -25
-9 -35 -20 -9 -10 -53 -36 -96 -56 -85 -40 -101 -65 -55 -85 21 -10 38 -5 120
35 52 26 98 51 101 57 7 11 84 49 100 49 6 0 22 11 35 25 13 14 29 25 36 25 7
0 48 18 90 40 86 46 98 45 149 -6 19 -19 41 -34 48 -34 8 0 20 -7 28 -16 7 -8
29 -24 48 -35 75 -41 106 -61 118 -76 6 -8 20 -16 30 -17 10 -2 28 -23 42 -52
14 -27 35 -59 48 -71 13 -12 23 -29 23 -37 0 -8 5 -18 10 -21 6 -3 10 -14 10
-24 0 -9 13 -28 30 -41 16 -14 29 -35 30 -47 0 -13 5 -23 10 -23 6 0 10 -8 10
-19 0 -10 7 -24 15 -31 8 -7 15 -25 15 -40 0 -15 -7 -33 -15 -40 -8 -7 -15
-19 -15 -27 0 -15 -23 -54 -55 -94 -12 -14 -36 -56 -54 -93 -22 -43 -39 -66
-50 -66 -10 0 -28 -11 -41 -25 -13 -14 -32 -25 -42 -25 -10 0 -18 -4 -18 -10
0 -5 -8 -10 -18 -10 -10 0 -31 -14 -47 -30 -16 -17 -36 -30 -45 -30 -9 0 -20
-4 -25 -9 -20 -20 -130 -71 -152 -71 -12 0 -32 10 -45 23 -24 24 -83 57 -103
57 -6 0 -22 13 -35 30 -14 16 -33 29 -42 30 -9 0 -20 5 -23 10 -3 6 -14 10
-24 10 -10 0 -24 7 -31 15 -7 8 -21 15 -32 15 -10 0 -21 6 -24 14 -3 8 -39 31
-79 51 -79 40 -91 39 -116 -6 -8 -16 -1 -22 44 -44 30 -14 62 -34 72 -45 10
-11 26 -20 35 -20 10 0 20 -7 24 -15 3 -8 14 -15 25 -15 11 0 23 -4 26 -10 3
-5 14 -10 24 -10 10 0 28 -13 41 -30 14 -18 32 -30 46 -30 13 0 24 -4 24 -10
0 -5 8 -10 19 -10 10 0 24 -7 31 -15 7 -8 19 -15 26 -15 13 0 54 -34 54 -45 0
-3 -8 -5 -19 -5 -10 0 -24 -7 -31 -15 -7 -8 -20 -15 -29 -15 -10 0 -28 -11
-41 -25 -13 -14 -32 -25 -42 -25 -10 0 -21 -7 -24 -15 -4 -8 -17 -15 -30 -15
-13 0 -24 -4 -24 -10 0 -5 -8 -10 -18 -10 -11 0 -27 -9 -37 -20 -21 -24 -238
-130 -264 -130 -23 0 -129 55 -156 80 -12 11 -29 20 -38 20 -9 0 -19 5 -22 10
-3 6 -14 10 -24 10 -10 0 -24 7 -31 15 -7 8 -19 15 -27 15 -7 0 -24 9 -36 20
-25 24 -74 50 -92 50 -7 0 -18 7 -25 15 -7 8 -21 15 -31 15 -11 0 -19 4 -19
10 0 5 -11 12 -24 16 -13 3 -34 17 -47 30 -16 17 -33 24 -61 24 -48 0 -51 -21
-5 -45 56 -29 76 -41 94 -57 10 -9 42 -26 71 -39 28 -12 52 -26 52 -31 0 -4 8
-8 18 -8 9 0 29 -11 44 -25 15 -14 32 -25 38 -25 9 0 33 -10 70 -32 8 -4 22
-11 30 -14 8 -3 23 -10 32 -15 10 -5 24 -9 31 -9 8 0 22 -10 33 -21 10 -12 29
-25 42 -30 20 -8 21 -11 10 -29 -7 -11 -20 -20 -29 -20 -8 0 -28 -13 -44 -30
-16 -16 -37 -30 -47 -30 -10 0 -18 -4 -18 -10 0 -5 -11 -10 -24 -10 -13 0 -26
-7 -30 -15 -3 -8 -14 -15 -24 -15 -11 0 -25 -7 -32 -15 -7 -8 -19 -15 -28 -15
-8 0 -25 -11 -38 -25 -20 -22 -32 -25 -87 -25 -58 0 -65 -2 -95 -33 -63 -65
-29 -159 62 -174 33 -5 41 -2 72 28 23 22 34 42 34 61 0 29 30 68 53 68 8 0
24 11 37 25 13 14 32 25 42 25 10 0 21 7 24 15 4 8 16 15 29 15 13 0 25 7 29
15 3 8 14 15 24 15 10 0 29 11 42 25 13 14 32 25 42 25 10 0 18 4 18 8 0 5 19
16 42 27 38 17 42 17 53 1 12 -15 13 -15 19 0 3 8 6 24 6 34 0 14 27 32 105
70 57 28 107 55 110 60 8 12 84 50 101 50 6 0 17 7 24 15 7 8 17 12 22 9 5 -3
22 5 36 19 31 28 88 58 96 49 3 -3 6 -117 6 -254 l0 -249 33 3 32 3 5 280 5
280 30 15 c17 8 47 25 68 38 21 12 45 22 53 22 8 0 14 4 14 10 0 5 11 12 24
16 13 3 34 17 47 30 12 13 30 24 40 24 9 0 19 7 23 15 3 8 14 15 25 15 11 0
23 5 26 10 3 6 14 10 24 10 10 0 24 7 31 15 10 12 46 15 206 15 181 0 194 -1
194 -18 0 -10 14 -31 30 -47 17 -16 30 -37 30 -47 0 -10 5 -18 10 -18 6 0 10
-10 10 -22 1 -13 14 -34 30 -48 17 -13 30 -29 30 -35 0 -15 31 -78 42 -86 5
-3 7 -111 6 -240 -3 -225 -4 -234 -23 -237 -11 -3 -24 -10 -28 -18 -4 -8 -16
-14 -26 -14 -10 0 -24 -7 -31 -15 -7 -8 -19 -15 -27 -15 -7 0 -24 -9 -36 -21
-12 -11 -53 -36 -92 -55 -38 -20 -88 -48 -110 -64 -22 -16 -47 -29 -56 -30 -9
0 -22 -6 -29 -14 -6 -8 -21 -16 -33 -18 -25 -3 -50 -48 -41 -72 8 -20 70 -22
77 -2 3 7 44 32 91 56 47 23 88 45 91 50 7 11 125 70 140 70 6 0 22 11 35 25
13 14 32 25 42 25 10 0 21 7 24 15 4 8 12 15 20 15 12 0 14 -50 12 -318 l-3
-317 -23 -3 c-13 -2 -26 -10 -29 -18 -3 -8 -13 -14 -22 -14 -10 0 -28 -11 -41
-25 -13 -14 -29 -25 -36 -25 -16 0 -78 -32 -82 -43 -2 -4 -31 -21 -65 -38 -33
-17 -67 -37 -74 -45 -8 -8 -20 -14 -27 -14 -8 0 -19 -7 -26 -15 -7 -8 -19 -15
-28 -15 -17 0 -52 -37 -52 -57 0 -20 36 -16 78 11 20 12 47 26 60 30 12 4 22
11 22 16 0 5 25 21 56 36 31 15 61 32 67 39 16 15 77 45 92 45 6 0 22 11 35
25 13 14 31 25 41 25 10 0 22 7 27 16 5 9 14 14 21 10 7 -5 11 -61 11 -177 l0
-169 -25 0 c-18 0 -25 -5 -25 -19 0 -10 -7 -24 -15 -31 -45 -37 18 -140 86
-140 25 0 44 9 72 35 47 43 51 94 11 136 l-26 27 0 179 c1 147 3 180 16 188
10 6 20 4 34 -8 10 -9 26 -17 36 -17 9 0 19 -7 22 -15 4 -8 11 -15 17 -15 18
0 87 -33 87 -42 0 -5 35 -25 78 -45 42 -19 84 -42 93 -50 22 -19 90 -53 106
-53 7 0 13 -4 13 -8 0 -8 69 -42 86 -42 6 0 23 -13 38 -29 16 -16 34 -27 42
-24 8 3 17 -2 20 -11 3 -9 14 -16 24 -16 10 0 23 -7 30 -15 7 -8 21 -15 31
-15 10 0 21 -5 24 -10 7 -12 65 -14 65 -2 0 22 -139 111 -174 112 -6 0 -24 14
-40 30 -16 17 -38 30 -48 30 -10 0 -18 5 -18 10 0 6 -8 10 -19 10 -10 0 -24 7
-31 15 -7 8 -21 15 -31 15 -10 0 -21 5 -24 10 -3 5 -14 10 -24 10 -10 0 -26 9
-36 20 -9 10 -53 36 -97 56 -43 21 -82 42 -86 48 -4 6 -28 21 -54 34 -26 13
-50 27 -53 33 -4 5 -14 9 -24 9 -10 0 -24 7 -31 15 -7 8 -19 15 -27 15 -41 0
-44 17 -44 317 l-1 288 23 3 c13 2 26 -3 31 -12 5 -9 17 -16 27 -16 10 0 28
-11 41 -25 13 -14 29 -25 35 -25 16 0 73 -29 81 -41 3 -6 42 -28 87 -50 44
-22 88 -46 97 -54 9 -8 21 -15 27 -15 6 0 16 -7 23 -15 7 -8 20 -15 30 -15 10
0 23 -7 30 -15 7 -8 20 -15 29 -15 10 0 28 -11 41 -25 29 -31 51 -32 68 -4 13
20 10 25 -29 65 -24 25 -49 42 -56 40 -6 -3 -17 2 -23 10 -7 8 -20 14 -29 14
-10 0 -28 11 -41 25 -13 14 -29 25 -36 25 -16 0 -114 50 -139 71 -11 9 -52 33
-91 53 -39 20 -79 45 -89 56 -10 11 -26 20 -35 20 -10 0 -20 7 -24 15 -3 8
-14 15 -24 15 -10 0 -27 9 -36 19 -15 17 -17 43 -17 208 0 153 3 194 16 220 9
18 20 35 26 38 5 4 9 14 9 24 0 10 11 28 25 41 14 13 25 32 25 42 0 10 7 21
15 24 8 4 15 17 15 30 0 13 5 24 10 24 6 0 10 8 10 19 0 10 6 24 14 30 8 7 22
27 31 46 l16 35 168 0 c138 0 171 -3 181 -15 7 -8 21 -15 31 -15 11 0 19 -4
19 -10 0 -5 10 -10 23 -10 12 -1 33 -14 47 -30 13 -17 31 -30 40 -31 8 0 29
-9 45 -19 17 -11 54 -31 82 -45 29 -15 56 -32 60 -39 5 -7 31 -24 58 -37 l50
-24 3 -328 c2 -309 3 -327 21 -327 10 0 25 8 34 18 15 16 17 53 17 305 0 237
2 287 14 287 7 0 19 -7 26 -14 11 -14 33 -26 132 -70 20 -9 40 -21 43 -26 3
-6 14 -10 24 -10 10 0 24 -7 31 -15 7 -8 58 -38 114 -66 55 -28 107 -57 114
-63 10 -10 13 -103 15 -417 l2 -404 22 -3 23 -3 2 383 c3 380 3 383 24 386 11
2 27 -4 34 -13 7 -8 21 -15 31 -15 11 0 19 -4 19 -10 0 -5 8 -10 18 -10 10 0
31 -13 47 -30 16 -16 37 -30 47 -30 10 0 18 -4 18 -10 0 -5 11 -10 24 -10 13
0 26 -7 30 -15 3 -8 13 -15 23 -15 9 0 27 -10 39 -21 26 -24 41 -34 134 -80
36 -18 74 -40 85 -50 11 -9 33 -23 50 -30 16 -8 35 -24 41 -37 43 -87 124
-109 182 -49 44 45 44 87 0 127 -25 23 -43 29 -75 30 -23 0 -45 -5 -48 -10
-11 -18 -45 -11 -69 15 -13 14 -28 25 -35 25 -6 0 -28 10 -49 23 -20 12 -59
33 -85 46 -26 12 -53 31 -60 42 -6 10 -19 19 -28 19 -9 0 -22 7 -29 15 -7 8
-19 15 -27 15 -8 0 -21 7 -30 15 -8 8 -18 13 -23 10 -4 -3 -13 2 -20 10 -7 8
-20 15 -29 15 -10 0 -28 11 -41 25 -13 14 -32 25 -42 25 -10 0 -21 7 -24 15
-4 8 -17 15 -30 15 -13 0 -24 4 -24 10 0 5 -11 12 -25 16 -14 3 -30 14 -35 24
-14 26 -13 30 9 30 11 0 23 5 26 10 3 6 14 10 24 10 10 0 28 11 41 25 13 14
31 25 41 25 9 0 22 7 29 15 7 8 20 15 29 15 10 0 28 11 40 24 13 14 29 22 37
19 8 -3 17 2 20 11 3 9 12 16 19 16 23 0 77 33 119 73 34 31 38 40 26 47 -23
14 -33 12 -60 -13 -26 -24 -86 -57 -104 -57 -6 0 -22 -12 -35 -25 -13 -14 -32
-25 -42 -25 -11 0 -22 -7 -25 -15 -4 -8 -16 -15 -29 -15 -13 0 -25 -6 -28 -13
-6 -17 -190 -107 -217 -107 -19 0 -120 50 -149 73 -16 14 -51 34 -71 42 -8 4
-22 11 -30 16 -8 5 -22 12 -30 15 -8 3 -23 10 -32 15 -10 5 -24 9 -31 9 -7 0
-24 11 -37 25 -13 14 -32 25 -42 25 -10 0 -21 7 -24 15 -4 8 -17 15 -30 15
-19 0 -24 5 -24 25 0 18 5 25 19 25 10 0 24 7 31 15 7 8 21 15 30 15 10 0 27
11 38 25 11 14 29 25 41 25 12 0 24 7 27 15 4 8 14 15 23 15 10 0 28 11 40 24
13 13 34 27 47 30 13 4 24 11 24 16 0 6 8 10 19 10 10 0 24 7 31 15 7 8 17 15
23 15 6 0 19 8 30 17 10 10 44 32 76 48 46 24 57 35 59 59 2 16 -1 33 -6 38
-11 11 -180 -70 -201 -96 -8 -9 -19 -16 -26 -16 -7 0 -18 -7 -25 -15 -7 -8
-20 -15 -29 -15 -10 0 -28 -11 -41 -25 -13 -14 -32 -25 -42 -25 -10 0 -21 -7
-24 -15 -4 -8 -16 -15 -29 -15 -13 0 -25 -7 -29 -15 -3 -8 -14 -15 -24 -15
-10 0 -29 -11 -42 -25 -13 -14 -32 -25 -42 -25 -10 0 -18 -4 -18 -9 0 -5 -13
-14 -30 -20 -16 -5 -30 -17 -30 -25 0 -22 -7 -20 -42 9 -16 14 -36 25 -43 25
-7 0 -15 3 -17 8 -1 4 -33 22 -69 40 -36 18 -76 43 -89 57 -13 14 -30 25 -38
25 -17 0 -82 66 -82 84 0 7 -11 23 -25 36 -14 13 -25 28 -26 34 0 6 -11 27
-25 46 -57 82 -74 110 -74 124 0 7 -7 19 -15 26 -8 7 -15 25 -15 40 0 15 7 33
15 40 8 7 15 21 15 31 0 11 5 19 10 19 6 0 10 8 10 18 0 10 14 31 30 47 17 16
30 34 30 40 0 19 27 67 55 99 14 16 25 35 25 43 0 7 8 13 18 13 10 0 31 14 47
30 16 17 33 30 39 30 14 0 175 80 181 90 7 11 125 70 140 70 7 0 18 6 24 14 9
11 18 10 50 -6 21 -10 46 -27 56 -38 9 -10 22 -16 29 -14 7 3 19 -2 26 -11 7
-8 21 -15 31 -15 10 0 21 -4 24 -10 3 -5 14 -10 24 -10 10 0 26 -9 37 -21 10
-12 54 -39 96 -60 42 -21 79 -43 82 -48 4 -5 28 -20 54 -33 26 -13 50 -27 54
-33 13 -18 43 10 43 41 0 25 -7 32 -55 56 -30 14 -62 33 -70 41 -8 8 -41 27
-72 42 -31 15 -59 33 -62 41 -3 8 -14 14 -24 14 -11 0 -25 7 -32 15 -7 8 -21
15 -31 15 -11 0 -19 5 -19 10 0 6 -9 10 -20 10 -12 0 -31 11 -44 25 -13 14
-33 25 -45 25 -11 0 -21 4 -21 10 0 17 34 50 52 50 9 0 20 5 23 10 3 6 14 10
24 10 9 0 28 13 41 30 14 16 31 29 38 30 7 0 30 11 52 25 22 14 44 25 49 25 6
0 18 9 29 20 10 10 49 35 86 55 62 32 70 34 86 20 9 -8 24 -15 32 -15 9 0 18
-7 22 -15 3 -8 14 -15 24 -15 10 0 29 -11 42 -25 13 -14 32 -25 42 -25 10 0
21 -7 24 -15 4 -8 17 -15 30 -15 13 0 24 -4 24 -10 0 -5 8 -10 18 -10 10 0 31
-13 47 -30 16 -16 37 -30 46 -30 10 0 19 -3 21 -7 2 -5 33 -24 70 -43 53 -27
70 -32 80 -22 9 9 6 17 -12 37 -25 27 -42 37 -120 76 -25 12 -55 32 -67 45
-12 13 -28 24 -36 24 -8 0 -20 6 -27 14 -6 8 -17 13 -24 10 -7 -3 -19 2 -26
11 -7 8 -21 15 -32 15 -10 0 -21 7 -24 15 -4 8 -14 15 -23 15 -9 0 -32 15 -49
33 -31 32 -32 34 -14 50 10 9 26 17 34 17 9 0 21 7 28 15 7 8 21 15 31 15 10
0 21 5 24 10 3 6 15 10 26 10 11 0 22 7 25 15 4 8 16 15 29 15 13 0 25 6 28
14 3 7 44 32 91 55 46 22 88 45 91 51 3 5 41 26 83 47 42 20 79 40 80 45 2 4
12 8 22 8 9 0 23 7 30 15 7 8 21 15 32 15 10 0 21 -7 24 -15 12 -29 63 -18 99
23 48 51 48 93 0 138 -27 27 -42 34 -75 34 -33 0 -46 -6 -70 -32 -16 -18 -30
-39 -30 -47 0 -15 -66 -81 -81 -81 -5 0 -26 -10 -47 -23 -20 -13 -58 -33 -84
-46 -25 -12 -52 -28 -58 -36 -14 -17 -67 -45 -85 -45 -7 0 -18 -7 -25 -15 -7
-8 -20 -15 -29 -15 -10 0 -28 -11 -41 -25 -13 -14 -29 -25 -36 -25 -7 0 -43
-16 -80 -35 -37 -19 -72 -35 -79 -35 -6 0 -20 -9 -30 -20 -31 -34 -45 -25 -45
29 0 34 -6 56 -21 76 -21 26 -22 33 -15 205 7 175 3 207 -23 176 -18 -21 -21
-123 -5 -137 11 -9 14 -53 14 -204 0 -173 -2 -194 -18 -208 -10 -10 -23 -17
-29 -17 -5 0 -18 -10 -29 -21 -10 -12 -28 -25 -39 -30 -11 -5 -27 -13 -35 -18
-8 -6 -34 -18 -57 -27 -24 -10 -43 -21 -43 -26 0 -4 -9 -8 -20 -8 -12 0 -32
-12 -47 -28 -14 -15 -31 -26 -38 -24 -7 1 -18 -5 -25 -13 -7 -8 -20 -15 -30
-15 -10 0 -21 -7 -24 -16 -3 -9 -15 -14 -28 -12 l-23 3 -3 303 c-2 322 -2 322
-51 304 l-22 -8 -2 -334 -2 -335 -76 -40 c-42 -22 -95 -52 -117 -67 -23 -16
-48 -28 -56 -28 -7 0 -19 -7 -26 -15 -7 -8 -20 -15 -29 -15 -10 0 -28 -11 -40
-24 -13 -14 -29 -22 -37 -19 -8 3 -17 -2 -20 -11 -5 -14 -32 -16 -204 -16
l-198 0 -24 37 c-12 20 -31 49 -40 63 -9 14 -17 32 -17 41 -1 9 -8 22 -16 29
-8 7 -15 19 -15 28 0 8 -11 25 -25 38 -14 13 -25 32 -25 42 0 11 -7 22 -15 26
-8 3 -15 14 -15 24 0 10 -5 23 -11 29 -6 6 -10 96 -10 253 0 215 2 244 17 261
9 10 24 19 33 19 8 0 25 11 36 24 11 13 40 33 65 45 66 32 88 46 113 68 12 11
42 29 67 40 25 12 54 30 64 42 11 12 27 21 38 21 10 0 18 5 18 10 0 6 8 10 18
10 26 0 62 42 62 73 0 34 -15 42 -45 23 -13 -9 -31 -16 -40 -16 -8 0 -15 -4
-15 -10 0 -5 -11 -12 -24 -16 -14 -3 -32 -14 -42 -25 -9 -11 -49 -35 -88 -53
-40 -19 -80 -44 -90 -55 -11 -12 -25 -21 -31 -21 -7 0 -18 -7 -25 -15 -7 -8
-21 -15 -31 -15 -11 0 -19 -4 -19 -10 0 -5 -8 -10 -19 -10 -10 0 -24 -7 -31
-15 -7 -9 -17 -14 -22 -13 -6 2 -9 111 -9 262 0 229 2 261 17 277 9 11 26 19
36 19 10 0 21 7 24 15 4 8 14 15 24 15 9 0 25 10 36 21 10 12 28 25 39 31 35
16 65 35 88 55 12 11 54 34 92 53 39 18 77 41 85 50 8 10 24 19 35 21 14 3 20
12 20 29 0 22 -4 25 -30 22 -16 -2 -41 -14 -56 -28 -14 -13 -33 -24 -42 -24
-9 0 -17 -4 -17 -10 0 -5 -6 -10 -14 -10 -7 0 -29 -12 -48 -27 -19 -16 -61
-41 -94 -58 -32 -16 -69 -40 -81 -52 -12 -13 -28 -23 -36 -23 -8 0 -20 -7 -27
-15 -15 -18 -50 -20 -50 -2 -4 83 0 319 5 326 3 6 12 8 20 5 9 -4 20 10 34 42
12 25 21 48 21 50 0 2 -14 19 -31 39 -27 31 -37 35 -78 35 -39 0 -52 -5 -74
-28z m148 -1924 c9 -18 28 -55 42 -83 14 -27 33 -59 42 -70 10 -11 21 -28 24
-37 6 -16 22 -18 137 -18 97 0 130 -3 130 -12 0 -7 -41 -33 -91 -58 -50 -25
-101 -55 -113 -67 -11 -13 -29 -23 -38 -23 -9 0 -19 -4 -23 -9 -7 -12 -64 -41
-80 -41 -7 0 -22 -14 -35 -30 -13 -17 -27 -29 -32 -28 -7 3 -14 432 -8 503 0
3 6 5 14 5 7 0 21 -15 31 -32z m-125 -258 c0 -172 -3 -240 -11 -240 -7 0 -22
11 -35 25 -13 14 -29 25 -37 25 -7 0 -24 11 -37 25 -13 14 -29 25 -35 25 -7 0
-28 13 -46 30 -19 16 -38 30 -43 30 -6 0 -20 10 -32 21 -13 12 -32 27 -42 33
-117 71 -114 76 46 76 l127 1 22 32 c12 18 34 55 49 82 33 63 43 75 60 75 12
0 14 -43 14 -240z m-440 -35 c13 -14 29 -25 35 -25 6 0 22 -11 35 -25 13 -14
29 -25 35 -25 6 0 29 -18 50 -40 21 -22 44 -40 50 -40 6 0 22 -11 35 -25 13
-14 31 -25 40 -25 19 0 50 -34 50 -57 0 -19 -28 -53 -43 -53 -15 0 -136 -60
-143 -71 -5 -9 -118 -69 -129 -69 -3 0 -5 10 -4 23 0 22 5 31 62 115 34 52 34
85 2 124 -14 16 -23 33 -20 38 3 4 -2 13 -10 20 -8 7 -15 17 -15 23 0 17 -40
94 -56 107 -15 14 -19 30 -6 30 5 0 19 -11 32 -25z m1000 -24 c0 -10 -11 -28
-25 -41 -14 -13 -25 -32 -25 -42 0 -10 -7 -21 -15 -24 -8 -4 -15 -14 -15 -23
0 -10 -11 -28 -25 -41 -30 -29 -33 -70 -5 -95 11 -10 37 -52 57 -93 21 -41 46
-80 56 -86 22 -14 22 -36 -1 -36 -20 0 -184 78 -193 91 -6 10 -179 99 -191 99
-5 0 -17 9 -28 20 -26 26 -26 60 -1 60 10 0 24 7 31 15 7 8 20 15 29 15 9 0
22 9 28 19 7 11 43 34 80 52 37 18 83 46 101 61 18 15 39 28 47 28 8 0 15 5
15 10 0 6 8 10 19 10 10 0 24 7 31 15 15 18 30 11 30 -14z m-562 -543 c2 -198
0 -228 -13 -228 -9 0 -15 9 -15 24 0 13 -7 26 -15 30 -8 3 -15 14 -15 25 0 11
-4 23 -10 26 -5 3 -10 14 -10 23 0 9 -12 28 -26 42 -15 13 -29 33 -33 44 -7
17 -19 19 -132 20 -105 1 -124 3 -127 17 -2 12 25 30 95 65 54 27 111 58 128
69 42 28 75 45 90 45 7 0 18 7 25 15 7 9 23 15 34 13 21 -3 21 -8 24 -230z
m122 207 c13 -14 31 -25 41 -25 10 0 20 -4 24 -9 3 -5 37 -24 75 -42 39 -17
75 -38 81 -46 11 -13 52 -34 92 -47 55 -18 -49 -44 -138 -33 -43 4 -45 3 -66
-32 -11 -20 -27 -40 -35 -44 -8 -4 -14 -17 -14 -27 0 -10 -4 -22 -10 -25 -5
-3 -10 -15 -10 -26 0 -11 -7 -22 -15 -25 -8 -4 -15 -15 -15 -25 0 -22 -36 -66
-46 -57 -4 5 -8 373 -4 481 0 14 17 7 40 -18z"/>
<path d="M800 3510 c-6 -11 -17 -20 -26 -20 -18 0 -84 -41 -103 -64 -7 -9 -21
-16 -31 -16 -10 0 -23 -7 -30 -15 -7 -8 -20 -15 -29 -15 -9 0 -25 -11 -35 -25
-10 -14 -27 -25 -36 -25 -10 0 -23 -7 -30 -15 -7 -8 -16 -13 -20 -10 -4 2 -20
-7 -36 -21 -16 -13 -49 -35 -74 -47 -25 -12 -56 -32 -70 -44 -14 -13 -30 -23
-37 -23 -20 0 -24 -18 -7 -35 15 -14 18 -14 33 0 10 8 25 15 34 15 9 0 17 5
17 10 0 6 8 10 19 10 10 0 24 7 31 15 7 8 20 15 29 15 10 0 28 11 40 24 13 13
34 27 47 30 13 4 24 11 24 16 0 6 8 10 18 10 10 0 29 11 42 25 13 14 32 25 42
25 10 0 21 7 24 15 4 8 14 15 24 15 9 0 25 10 36 21 10 12 43 32 72 46 54 24
80 58 69 87 -9 22 -24 20 -37 -4z"/>
<path d="M842 1178 c3 -155 4 -163 23 -163 19 0 20 8 23 149 3 150 -3 176 -34
176 -12 0 -14 -28 -12 -162z"/>
</g>
</svg>
